<svg width="200" height="200" viewBox="0 0 200 200" fill="none" xmlns="http://www.w3.org/2000/svg">
<path fill-rule="evenodd" clip-rule="evenodd" d="M192.049 117.371C193.64 117.371 194.926 116.086 194.926 114.495C194.926 112.903 193.64 111.618 192.049 111.618C190.457 111.618 189.172 112.903 189.172 114.495C189.141 116.055 190.457 117.371 192.049 117.371ZM189.631 114.495C189.631 113.148 190.702 112.077 192.049 112.077C193.365 112.077 194.466 113.148 194.466 114.495C194.466 115.811 193.395 116.912 192.049 116.912C190.702 116.882 189.631 115.811 189.631 114.495Z" fill="#242424"/>
<path fill-rule="evenodd" clip-rule="evenodd" d="M192.049 117.371C193.64 117.371 194.926 116.086 194.926 114.495C194.926 112.903 193.64 111.618 192.049 111.618C190.457 111.618 189.172 112.903 189.172 114.495C189.141 116.055 190.457 117.371 192.049 117.371ZM189.631 114.495C189.631 113.148 190.702 112.077 192.049 112.077C193.365 112.077 194.466 113.148 194.466 114.495C194.466 115.811 193.395 116.912 192.049 116.912C190.702 116.882 189.631 115.811 189.631 114.495Z" fill="#242424"/>
<path d="M195.109 75.5647H4.25415V80.0637H195.109V75.5647Z" fill="#242424"/>
<path d="M195.14 119.085H4.28467V123.584H195.14V119.085Z" fill="#242424"/>
<path fill-rule="evenodd" clip-rule="evenodd" d="M4.25415 81.6245H17.4757C29.473 81.6245 38.2567 86.8886 38.2567 100.018C38.2567 110.638 31.1563 117.372 20.6892 117.372H4.25415V81.6245ZM17.2614 106.66H18.0878C22.4031 106.66 25.3106 104.67 25.3106 99.9571C25.3106 94.9378 22.8316 92.7955 18.0878 92.7955H17.2614V106.66Z" fill="#242424"/>
<path fill-rule="evenodd" clip-rule="evenodd" d="M41.3784 89.6431H60.9046V97.2332H51.57V99.8959H60.1701V107.119H51.57V109.873H61.2107V117.463H41.3784V89.6431Z" fill="#242424"/>
<path fill-rule="evenodd" clip-rule="evenodd" d="M85.8481 102.65L82.1754 117.463H69.7191L60.0784 81.7163H73.5447L76.6971 97.172L80.1861 81.7163H92.1528L95.8254 97.172L99.1614 81.7163H112.781L102.65 117.463H89.8268L85.8481 102.65Z" fill="#242424"/>
<path fill-rule="evenodd" clip-rule="evenodd" d="M133.745 81.7163L144.886 117.463H131.603L130.44 111.985H122.972L121.809 117.463H107.333L118.963 81.7163H133.745ZM128.42 103.66L126.431 96.6823L124.747 103.66H128.42Z" fill="#242424"/>
<path fill-rule="evenodd" clip-rule="evenodd" d="M145.62 81.7163H159.362V106.17H170.013V117.463H145.559L145.62 81.7163Z" fill="#242424"/>
<path fill-rule="evenodd" clip-rule="evenodd" d="M165.177 81.7163V91.6937H173.012V117.463H187.152V91.6937H195.14V81.7163H165.177Z" fill="#242424"/>
<path fill-rule="evenodd" clip-rule="evenodd" d="M190.916 112.995H192.447C192.967 112.995 193.273 113.362 193.273 113.791C193.273 114.127 193.12 114.372 192.814 114.495C193.12 114.586 193.212 114.892 193.212 115.168C193.242 115.352 193.212 115.688 193.334 115.841H192.691C192.6 115.658 192.63 115.382 192.6 115.168C192.538 114.862 192.447 114.739 192.11 114.739H191.498V115.841H190.886V112.995H190.916ZM191.559 114.28H192.263C192.538 114.28 192.691 114.158 192.691 113.882C192.691 113.607 192.538 113.485 192.263 113.485H191.559V114.28Z" fill="#242424"/>
<path fill-rule="evenodd" clip-rule="evenodd" d="M190.916 112.995H192.447C192.967 112.995 193.273 113.362 193.273 113.791C193.273 114.127 193.12 114.372 192.814 114.495C193.12 114.586 193.212 114.892 193.212 115.168C193.212 115.352 193.212 115.688 193.334 115.841H192.691C192.6 115.658 192.63 115.382 192.6 115.168C192.538 114.862 192.447 114.739 192.11 114.739H191.498V115.841H190.886V112.995H190.916ZM191.559 114.28H192.263C192.538 114.28 192.691 114.158 192.691 113.882C192.691 113.607 192.538 113.485 192.263 113.485H191.559V114.28Z" fill="#242424"/>
</svg>
