<svg width="200" height="200" viewBox="0 0 200 200" fill="none" xmlns="http://www.w3.org/2000/svg">
<g clip-path="url(#clip0_92_605)">
<path fill-rule="evenodd" clip-rule="evenodd" d="M187.532 111.641L194.773 91.6417H174.774C172.188 91.6417 169.371 93.7101 168.452 96.2391L162.993 111.124H152.303L157.475 97.6191H162.934L165.52 90.4926H160.176L163.855 80.78H154.372L150.81 90.4926H144.545L141.959 97.6191H148.224L143.28 111.124H132.362L140.005 90.9522H130.696L123.167 111.585H114.545L112.133 103.825L126.041 91.3549H116.155L104.95 101.413H104.087L111.329 81.4695H102.651L91.6699 111.641H83.6811L90.8645 91.6417H70.9229C68.3369 91.6417 65.521 93.7101 64.5438 96.2391L58.7962 112.102H51.3249L58.7962 91.5837H42.4178L44.1994 86.6415H28.1647L29.8894 81.9291H2.93408V90.5505H18.1064L7.81934 118.769H16.4397L25.0031 95.3198H32.4164L23.854 118.769H32.5324L39.2562 100.262H47.0153L40.2914 118.769H54.0848L58.5094 114.227C58.5674 116.47 59.7165 118.769 61.67 118.769H69.6009L74.3712 113.71C74.2563 116.067 75.4634 118.769 77.5318 118.769H85.4627L91.0374 113.308L89.0839 118.769H97.7623L102.878 104.745H103.855L108.222 118.769H117.475L122.706 113.251C122.475 115.722 123.739 118.595 125.867 118.595H137.418L142.764 112.733C142.303 115.263 143.566 118.595 145.865 118.595H157.419L162.419 113.136C162.016 115.607 163.28 118.769 165.52 118.769H173.452L178.221 113.71C178.107 116.067 179.314 118.769 181.382 118.769H196.613V111.641H187.532ZM74.7739 111.469H67.9352L72.4757 98.998H79.3145L74.7739 111.469ZM178.624 111.469H171.786L176.384 98.998H183.166L178.624 111.469Z" fill="#242424"/>
<path fill-rule="evenodd" clip-rule="evenodd" d="M143.912 80.7791H134.372L131.498 88.653H140.923L143.912 80.7791Z" fill="#242424"/>
</g>
<defs>
<clipPath id="clip0_92_605">
<rect width="199.547" height="199.547" fill="white"/>
</clipPath>
</defs>
</svg>
