<svg width="184" height="51" viewBox="0 0 184 51" fill="none" xmlns="http://www.w3.org/2000/svg">
<path d="M130.962 24.9693L143.021 4.00426H167.138L179.197 24.9693L167.138 45.9343H143.021L130.962 24.9693ZM140.787 0.239746L126.494 25.1529L140.787 50.066H169.342L183.635 25.1529L169.342 0.239746H140.787Z" fill="#242424"/>
<path d="M173.351 20.7762C173.351 20.7762 172.801 18.9093 172.556 18.2972C168.852 8.68693 158.018 3.79 148.408 7.4933C138.675 11.2272 133.778 21.9699 137.543 31.7637C139.226 36.1404 141.95 38.4358 141.95 38.4358C141.95 38.4358 149.999 35.3446 149.938 35.3752C152.111 34.5489 152.907 35.4058 152.907 35.4058L150.091 28.091C150.091 28.091 149.571 26.7444 148.102 26.775C148.102 26.775 144.123 26.9892 143.817 26.9892C143.511 26.9892 142.899 27.1116 142.593 27.938L142.287 28.795L139.777 20.1335C139.777 20.1335 139.195 18.1441 141.032 17.4402L146.204 15.4508L147.428 12.9717C147.428 12.9717 155.416 9.88055 156.212 9.6051C157.13 9.26844 158.661 8.99299 160.13 10.156L173.351 20.7762Z" fill="#242424"/>
<path d="M173.841 24.3265C174.117 27.1728 172.709 38.3439 161.874 42.5063C151.621 46.4545 143.97 40.1803 143.97 40.1803C144.245 40.0579 152.448 36.9055 153.458 36.5382C154.131 36.2627 155.263 35.9567 156.457 36.8136L151.682 24.4795C151.682 24.4795 151.407 23.3777 149.969 23.3777C149.969 23.3777 149.203 23.4083 146.326 23.5613C145.531 23.5919 144.582 23.5919 144.245 24.5713L144.031 25.1834L142.654 20.8068C142.654 20.8068 142.348 19.8274 143.419 19.4295L148.561 17.3177L149.54 14.8999C149.54 14.8999 156.151 12.3596 156.702 12.1453C157.895 11.6863 158.936 12.4208 159.548 12.8799L173.841 24.3265Z" fill="#242424"/>
<path d="M176.412 45.9647C176.045 45.5975 175.586 45.4138 175.065 45.4138C174.545 45.4138 174.086 45.5975 173.719 45.9953C173.351 46.3626 173.168 46.8217 173.168 47.342C173.168 47.8929 173.351 48.352 173.719 48.7192C174.086 49.1171 174.514 49.3008 175.065 49.2702C175.616 49.2702 176.045 49.0865 176.412 48.7192C176.779 48.352 176.963 47.8929 176.963 47.342C176.963 46.7605 176.779 46.332 176.412 45.9647ZM176.228 48.505C175.922 48.8417 175.524 48.9947 175.065 48.9947C174.606 48.9947 174.208 48.8417 173.902 48.505C173.596 48.1683 173.413 47.8011 173.413 47.342C173.413 46.8829 173.566 46.485 173.902 46.179C174.239 45.8423 174.606 45.6893 175.065 45.6893C175.524 45.6893 175.922 45.8423 176.228 46.179C176.534 46.485 176.687 46.8829 176.687 47.342C176.687 47.7705 176.534 48.1377 176.228 48.505Z" fill="#242424"/>
<path d="M175.892 48.3214C175.892 48.2908 175.892 48.2602 175.861 48.199C175.861 48.1378 175.861 48.0766 175.861 48.046V47.8929C175.861 47.8011 175.83 47.6787 175.739 47.5563C175.677 47.4339 175.555 47.3726 175.371 47.342C175.494 47.3114 175.616 47.2808 175.677 47.2502C175.8 47.1584 175.892 47.036 175.892 46.8217C175.892 46.5463 175.769 46.3933 175.555 46.3014C175.433 46.2402 175.249 46.2402 174.974 46.2402H174.239V48.352H174.606V47.5257H174.912C175.096 47.5257 175.249 47.5563 175.341 47.5869C175.463 47.6787 175.524 47.8317 175.524 48.0766V48.2296V48.3214C175.524 48.3214 175.524 48.3214 175.524 48.352C175.524 48.352 175.524 48.352 175.524 48.3826H175.861L175.892 48.3214ZM175.341 47.2196C175.249 47.2502 175.157 47.2808 174.974 47.2808H174.637V46.5157H174.943C175.157 46.5157 175.28 46.5463 175.402 46.6075C175.494 46.6381 175.555 46.7605 175.555 46.9136C175.555 47.0666 175.494 47.1584 175.341 47.2196Z" fill="#242424"/>
<path d="M43.0931 26.0405H29.5653C26.1069 26.0405 23.9338 28.3666 23.9338 31.672V41.3434C23.9338 45.261 26.0762 47.2503 29.5653 47.2197H43.1543C46.6128 47.2197 48.7246 44.8019 48.7246 41.6495V31.672C48.7246 28.0299 46.4597 26.0405 43.0931 26.0405ZM43.1849 41.5271H29.5653V41.4965V31.672V31.519H43.1849V41.5271Z" fill="#242424"/>
<path d="M69.7508 26.0405H56.223C52.7646 26.0405 50.5916 28.3666 50.5916 31.672V41.3434C50.5916 45.261 52.734 47.2503 56.223 47.2197H69.8426C73.3011 47.2197 75.4129 44.8019 75.4129 41.6495V31.672C75.3823 28.0299 73.1174 26.0405 69.7508 26.0405ZM69.7508 41.4965H69.6896V41.5271H56.07V31.4884H69.6896V31.6414H69.7508V41.4965Z" fill="#242424"/>
<path d="M44.2559 15.9405H39.0835L41.6544 10.0948L44.2559 15.9405ZM54.417 24.4489L45.0517 4.06543H38.5632L29.5039 24.4489H35.2884L37.0023 20.8374H46.1229L48.0204 24.4489H54.417Z" fill="#242424"/>
<path d="M115.904 4.06543H102.897C99.5607 4.06543 96.7144 6.29965 96.7144 9.48266V18.7868C96.7144 22.5513 99.5607 24.4489 102.927 24.4489H115.996C119.332 24.4489 121.352 22.1229 121.352 19.0929V9.48266C121.321 5.9936 119.179 4.09604 115.904 4.06543ZM115.506 19.7968H102.866V9.45205H115.506V19.7968Z" fill="#242424"/>
<path d="M0 26.0405V31.672H9.18175V47.2197H14.8438V31.672H23.1992V26.0405H0Z" fill="#242424"/>
<path d="M77.4939 26.0405H83.0948V41.4965H96.3165V47.2197H77.4939V26.0405Z" fill="#242424"/>
<path d="M103.111 39.1398H115.231V41.4965H103.142V40.1192H97.5407C97.5101 40.1192 97.5407 41.3128 97.5407 41.3128C97.5407 45.2304 99.6831 47.2198 103.172 47.1892H115.568C119.026 47.1892 121.138 44.7713 121.138 41.6495V38.3441C121.138 35.2835 118.414 33.6002 115.261 33.6002H103.172V31.672H115.261V32.8044L121.138 32.835V31.672C121.138 28.0605 118.873 26.0405 115.506 26.0405H103.172C99.7137 26.0405 97.5407 28.3666 97.5407 31.672V34.3347C97.5407 37.2729 100.203 39.1398 103.111 39.1398Z" fill="#242424"/>
<path d="M0.489746 4.09595V24.4488H6.33546V12.0535L12.5484 24.4488H16.8945L23.0769 11.9004V24.4488H29.0144V4.09595H20.3529L14.7215 16.1852L8.78393 4.09595H0.489746Z" fill="#242424"/>
<path d="M49.1223 4.09595V9.36015H57.7532V24.4488H63.4152V9.36015H72.3521V4.09595H49.1223Z" fill="#242424"/>
<path d="M95.3984 16.5526V19.0623C95.3984 22.0923 93.3784 24.4183 90.073 24.4183H78.9019C75.5658 24.4183 72.7195 22.5514 72.7195 18.7562V9.48266C72.7195 6.29965 75.5658 4.06543 78.9019 4.06543H89.9812C93.2254 4.06543 95.3984 5.9936 95.3984 9.48266C95.3984 9.48266 95.3984 12.4514 95.429 12.4208H89.6139C89.5833 12.4208 89.5833 9.48266 89.5833 9.48266H78.9019V19.7662H89.5833V16.5526H95.3984Z" fill="#242424"/>
</svg>
