<svg width="200" height="200" viewBox="0 0 200 200" fill="none" xmlns="http://www.w3.org/2000/svg">
<path fill-rule="evenodd" clip-rule="evenodd" d="M57.6294 81.4758L70.8409 68.1316H64.1027L57.6294 81.4758Z" fill="#242424"/>
<path fill-rule="evenodd" clip-rule="evenodd" d="M179.7 103.937L175.013 100.17L175.806 98.4516L177.59 94.4214L179.44 90.4575L167.747 95.7424L170.058 91.118L173.23 89.797L171.908 86.8901L170.058 91.1169L167.747 95.7413L166.755 97.7259L167.812 98.6514L177.588 94.4235L175.804 98.4536L163.45 103.936L160.017 100.633L152.089 103.936L150.769 93.3675L145.219 104.994H137.954L139.274 102.483L132.272 105.653L129.232 102.615L120.779 106.313L117.871 103.539L110.868 106.578L107.567 103.275L107.963 99.9723L113.643 88.2141L111.53 85.8362L110.473 86.2327L102.81 102.218L107.964 99.9723L107.568 103.275L100.037 106.578L95.8098 102.217L98.4527 96.5364L96.6027 95.8759L94.0923 101.292L82.8632 107.768L79.2968 104.201L72.427 108.427L68.1991 104.068L60.5374 108.427L56.8385 104.596L49.3082 109.089L45.2128 104.201L35.9641 110.674L32.3977 104.201L45.4768 76.456L40.9849 77.9094L24.9999 111.204L17.2046 111.335L33.5872 77.3815L28.9628 78.8349L13.5057 111.335L5.44647 111.466L19.8465 81.7419L7.29436 83.3258L34.2456 67.8677L31.6037 73.285L37.9445 70.2456L40.1899 74.4735L48.9096 69.9816L53.005 77.3794L40.0584 104.331L46.6642 99.7063L54.4585 83.3237H61.7248L53.533 100.63C54.5899 103.802 57.1004 101.556 57.8923 99.9692L72.1609 70.376H79.4272L64.4981 101.423C66.0841 102.876 68.726 100.895 69.9145 98.7818L77.3122 83.3237H84.4471L75.8619 101.558C77.3143 103.143 79.8248 101.821 80.4852 100.105L88.5435 83.3258H95.8098L87.883 99.9723C88.0155 102.748 92.3749 100.105 93.1678 98.5188L94.6213 95.349L90.5912 94.1605L91.2516 92.8396L101.36 83.3278H102.548L98.8482 91.1221L100.301 92.4431L103.075 86.7617L112.192 82.7978L113.909 84.6478L116.948 83.3268H122.892L113.777 102.219L119.061 99.8408L127.12 83.3268H134.123L125.667 101.029L130.291 99.0479L137.82 83.3258H144.956L136.632 100.5L141.125 98.6503L154.602 70.2456H161.867L153.676 87.2876L166.095 77.3794L173.889 79.8888L157.111 88.4771L158.433 97.8573L160.018 97.1969L165.831 84.9097L177.719 82.0027L180.231 89.0051L182.212 84.7782L194.366 82.0038L195.29 91.7805L183.665 96.8004L185.515 92.705L189.215 91.2515L187.893 87.9491L182.345 99.5758L194.498 111.861L192.65 104.067L188.142 105.471L186.312 103.558L193.443 102.084L196.613 115.031L195.291 116.616L183.358 106.961L133.728 122.431L136.371 116.616L90.1305 127.714L93.5654 119.789L30.1512 131.677L38.343 122.166L2.93604 124.544L51.0256 111.597L48.3827 117.145L107.57 109.747L105.455 115.031L147.732 108.425L146.147 111.86L180.625 104.728L179.7 103.937Z" fill="#242424"/>
</svg>
