<svg width="82" height="10" viewBox="0 0 82 10" fill="none" xmlns="http://www.w3.org/2000/svg">
<g clip-path="url(#clip0_21_96)">
<path d="M2.76001 2.90596C3.39043 2.92742 4.05189 2.92025 4.68334 2.91205C4.95352 2.92125 5.1947 2.89977 5.46488 2.90897C6.60769 2.8885 7.75049 2.86802 8.8933 2.84755C10.2763 2.83525 11.6302 2.79228 13.0132 2.77998C14.9686 2.72779 16.923 2.70525 18.8784 2.65306C19.3297 2.63874 19.78 2.65407 20.2313 2.63974C21.3741 2.61927 22.5169 2.5988 23.6587 2.60797C24.8015 2.5875 25.9443 2.56702 27.0861 2.5762C27.5374 2.56188 27.9887 2.54755 28.439 2.56288C30.2423 2.56489 32.0756 2.56791 33.8788 2.56992C34.9906 2.57807 36.1023 2.58623 37.2452 2.56576C37.6955 2.58108 38.1168 2.56574 38.5671 2.58106C40.3092 2.61068 42.0815 2.64131 43.8236 2.67092C45.5658 2.70054 47.278 2.72913 49.0202 2.75874C49.4705 2.77407 49.9208 2.78939 50.4011 2.80574C51.5419 2.84457 52.6526 2.88238 53.7934 2.92121C55.5646 2.98149 57.3057 3.04076 59.0779 3.07139C59.6483 3.0908 60.2187 3.11022 60.7891 3.12963C61.9899 3.1705 63.1907 3.21138 64.3915 3.25225C64.4816 3.25531 64.6016 3.2594 64.6917 3.26247C61.9889 3.20016 59.256 3.13682 56.5522 3.10416C55.4104 3.09499 54.2996 3.05718 53.1578 3.048C52.6775 3.03166 52.1672 3.01428 51.6858 3.02759C50.0337 3.00104 48.4106 3.00516 46.7585 2.97862C44.8652 2.97355 42.9729 2.93882 41.0796 2.93375C40.7493 2.92251 40.4481 2.94195 40.1179 2.93071C39.0952 2.95527 38.1035 2.9512 37.0808 2.97576C35.0363 2.99523 32.9919 3.0147 30.9475 3.03417C30.6473 3.02396 30.346 3.04339 30.0448 3.06282C29.0521 3.08841 28.0284 3.14262 27.0357 3.1682C25.2304 3.2255 23.4551 3.28382 21.6498 3.34111C21.1685 3.35441 20.6561 3.39635 20.1747 3.40965C19.0309 3.45977 17.8871 3.5099 16.7422 3.58967C15.2972 3.65923 13.8221 3.72777 12.3771 3.79733C10.3596 3.90677 8.31208 4.0152 6.29461 4.12464C5.81326 4.13795 5.3309 4.1809 4.81953 4.19318C3.94589 4.2525 3.07224 4.31182 2.19859 4.37114C2.10853 4.36808 2.01643 4.42431 2.01234 4.54292C2.00928 4.63187 2.09627 4.72389 2.18634 4.72695C2.51656 4.73819 2.81574 4.77806 3.14596 4.7893C3.08081 4.93551 3.04772 5.02345 3.04466 5.1124C3.03342 5.43856 3.29339 5.74427 3.65363 5.75653C6.15041 5.69308 8.61818 5.59896 11.1139 5.56517C13.2784 5.54978 15.444 5.50475 17.6085 5.48936C19.9842 5.45148 22.3899 5.41462 24.7645 5.40639C25.516 5.40228 26.2676 5.39818 27.0201 5.36442C27.2302 5.37157 27.4414 5.34907 27.6816 5.35725C31.5272 5.39909 35.3739 5.41127 39.2195 5.45311C41.2629 5.46329 43.3363 5.47449 45.3787 5.51432C46.1303 5.51021 46.8507 5.53474 47.6023 5.53063C51.5369 5.60518 55.4716 5.67974 59.4063 5.75429C61.0884 5.78186 62.7706 5.80943 64.4527 5.837C65.8947 5.85639 67.3357 5.90544 68.7787 5.89518C69.9805 5.9064 71.1533 5.88695 72.3552 5.89817C72.9566 5.88896 73.557 5.90939 74.1284 5.89915C75.4824 5.85618 76.8363 5.81321 78.1903 5.77024C78.0962 5.88578 78.09 6.06368 78.116 6.18331C78.1409 6.33259 78.2268 6.45425 78.3749 6.51867C78.4929 6.58206 78.671 6.64749 78.7931 6.59227C79.0974 6.48389 79.4017 6.3755 79.676 6.26609C79.676 6.26609 79.676 6.26609 79.646 6.26507C79.676 6.26609 79.677 6.23644 79.707 6.23746C79.737 6.23849 79.7681 6.20986 79.7681 6.20986L79.7381 6.20883C79.8902 6.15464 80.0423 6.10045 80.2255 6.01763C80.3777 5.96343 80.5609 5.88061 80.713 5.82642C80.8962 5.7436 81.0494 5.65975 81.2325 5.57693C81.4157 5.49411 81.544 5.26099 81.5511 5.05343C81.5552 4.93482 81.5283 4.84485 81.4723 4.7242C81.4163 4.60355 81.2714 4.45019 81.1223 4.41543C80.9732 4.38067 80.8241 4.34591 80.674 4.3408C80.644 4.33978 80.614 4.33876 80.584 4.33773C80.4939 4.33467 80.3738 4.33058 80.2827 4.35717C80.0416 4.37864 79.8304 4.40114 79.5902 4.39297C79.4101 4.38684 79.229 4.41036 79.0188 4.40321C78.5075 4.41549 78.0261 4.42879 77.5137 4.47072C77.3937 4.46663 77.2425 4.49118 77.1225 4.48709C77.1845 4.42983 77.2166 4.37155 77.2186 4.31225C77.2507 4.25397 77.2527 4.19466 77.2548 4.13536C77.2558 4.10571 77.2579 4.04641 77.2889 4.01778C77.2909 3.95848 77.293 3.89918 77.264 3.8685C77.264 3.8685 77.294 3.86953 77.295 3.83987C77.3871 3.78364 77.4792 3.7274 77.5434 3.61084C77.6065 3.52393 77.6406 3.40635 77.6447 3.28774C77.6487 3.16914 77.6218 3.07917 77.5658 2.95852C77.5368 2.92785 77.5089 2.86752 77.4799 2.83685C77.3929 2.74483 77.3038 2.71211 77.2148 2.6794C77.0367 2.61396 76.8276 2.57716 76.6175 2.57001C76.4373 2.56388 76.2872 2.55877 76.1071 2.55264C75.8669 2.54446 75.6268 2.53629 75.3866 2.52811C75.0564 2.51687 74.6962 2.50461 74.3659 2.49337C73.4653 2.46272 72.5647 2.43207 71.6641 2.40141C70.8236 2.3728 69.953 2.34317 69.1124 2.31456C68.3319 2.28799 67.5814 2.26245 66.8009 2.23588C63.7088 2.13064 60.6457 2.05607 57.5526 1.98047C55.2401 1.93144 52.9275 1.88242 50.616 1.80374C49.5953 1.769 48.5436 1.76289 47.5218 1.7578C45.2083 1.73842 42.8957 1.68939 40.5821 1.67002C39.9217 1.64754 39.2602 1.65471 38.5997 1.63223C38.2095 1.61895 37.8482 1.63634 37.458 1.62305C35.1734 1.63435 32.8888 1.64565 30.6042 1.65694C29.9127 1.66309 29.2212 1.66924 28.4997 1.67437C28.1095 1.66109 27.7182 1.67746 27.3269 1.69382C25.0413 1.73477 22.7857 1.77674 20.5001 1.81769C19.3272 1.83714 18.1544 1.85659 16.9806 1.9057C14.9651 1.95584 12.9497 2.00598 10.9633 2.0868C9.21802 2.14614 7.47379 2.17583 5.72956 2.20552C5.45835 2.22597 5.18817 2.21678 4.88695 2.23621C4.43563 2.25053 3.98533 2.23521 3.534 2.24953C3.13966 2.35485 2.71938 2.34055 2.32911 2.32726C2.30318 2.20764 2.18616 2.1146 2.09508 2.14118C1.8249 2.13199 1.58372 2.15346 1.31252 2.17392C1.19141 2.19948 1.06929 2.2547 1.03519 2.37228C1.00006 2.51951 1.08501 2.67083 1.20407 2.70457C1.32313 2.73831 1.44219 2.77205 1.56125 2.80579C1.68031 2.83953 1.77037 2.84259 1.89045 2.84668C2.18963 2.88655 2.45981 2.89574 2.76001 2.90596ZM73.0397 4.34812C73.4 4.36039 73.7902 4.37367 74.1505 4.38593C74.1774 4.47591 74.2354 4.53725 74.2934 4.5986C74.1433 4.59349 73.9922 4.61803 73.8721 4.61394C73.6019 4.60475 73.3307 4.6252 73.0605 4.61601C71.8587 4.60478 70.6859 4.62424 69.4841 4.61302C68.9427 4.62427 68.4013 4.63553 67.8609 4.61714C67.0204 4.58853 66.1488 4.58855 65.3082 4.55994C63.3559 4.52317 61.4336 4.48743 59.4813 4.45067C55.6967 4.38122 51.9421 4.3128 48.1575 4.24336C45.4547 4.18104 42.7498 4.17804 40.045 4.17503C35.9882 4.15569 31.9024 4.10568 27.8456 4.08634C27.034 4.0884 26.2224 4.09047 25.4099 4.12218C23.0942 4.16211 20.7796 4.17238 18.464 4.21231C16.2084 4.25428 13.9238 4.26557 11.6682 4.30754C11.4581 4.30039 11.2469 4.32289 11.0368 4.31574C11.6392 4.27687 12.2706 4.26868 12.8731 4.22981C15.0096 4.1541 17.1472 4.04874 19.2837 3.97304C20.0363 3.93928 20.7888 3.90552 21.5113 3.87074C21.9026 3.85438 22.2939 3.83801 22.6541 3.85027C24.9097 3.8083 27.1363 3.73566 29.3619 3.69267C29.7832 3.67732 30.2345 3.663 30.6558 3.64765C31.2873 3.63946 31.9187 3.63126 32.5191 3.6517C34.8037 3.6404 37.0883 3.62911 39.3729 3.61781C39.8843 3.60553 40.3946 3.6229 40.8759 3.6096C40.996 3.61368 41.1461 3.61879 41.2662 3.62288C41.6264 3.63514 41.9867 3.6474 42.3179 3.62899C44.6015 3.64735 46.9141 3.69637 49.1976 3.71473C50.2494 3.72084 51.3011 3.72695 52.3518 3.76271C55.7451 3.84852 59.1684 3.93536 62.5617 4.02117C66.1041 4.14174 69.5874 4.23062 73.0397 4.34812Z" fill="#242424"/>
<path d="M7.11446 7.20848C7.20521 7.21157 7.28135 7.1395 7.28452 7.04751C7.28769 6.95551 7.21669 6.87843 7.12593 6.87534C7.03518 6.87226 6.95904 6.94433 6.95587 7.03632C6.9527 7.12831 7.0237 7.20539 7.11446 7.20848Z" fill="#242424"/>
</g>
<defs>
<clipPath id="clip0_21_96">
<rect width="80.5663" height="7.00005" fill="white" transform="matrix(0.999421 0.0340173 -0.0344291 0.999407 1.11108 0)"/>
</clipPath>
</defs>
</svg>
