<svg width="24" height="32" viewBox="0 0 24 32" fill="none" xmlns="http://www.w3.org/2000/svg">
<g clip-path="url(#clip0_17_75)">
<path d="M22.6667 8.00003C20.2375 4.15003 18.2222 0.888916 11.5555 0.888916C6.65138 0.888916 2.95443 4.44447 1.62109 8.00003H7.99999L12 6.22225L16 8.00003H22.6667ZM3.99999 21.3334C6.42916 25.1834 7.5 27 12 31.1111C16 27.1111 18.0153 25.1834 20.4444 21.3334H3.99999Z" fill="#EB5757"/>
<path d="M12 0C5.383 0 0 5.394 0 12.022C0 21.949 11.201 31.481 11.678 31.882C11.7671 31.9579 11.8802 32 11.9973 32.0007C12.1144 32.0015 12.2279 31.9608 12.318 31.886C12.795 31.492 24 22.124 24 12.022C24 5.394 18.617 0 12 0ZM12.002 30.838C10.161 29.193 1 20.579 1 12.022C1 5.944 5.935 1 12 1C18.065 1 23 5.944 23 12.022C23 20.724 13.848 29.215 12.002 30.838Z" fill="#242424"/>
<path d="M12 6C8.691 6 6 8.691 6 12C6 15.309 8.691 18 12 18C15.309 18 18 15.309 18 12C18 8.691 15.309 6 12 6ZM12 17C9.243 17 7 14.757 7 12C7 9.243 9.243 7 12 7C14.757 7 17 9.243 17 12C17 14.757 14.757 17 12 17Z" fill="#242424"/>
<path d="M9.38462 16C9.38462 16 11.3846 14.6769 13.7231 15.8462V15.3538C13.7231 15.3538 11.7538 14.0615 13.4154 13.8769C15.0769 13.6923 16 14.5538 16 14.5538V14.1231C16 14.1231 13.1692 12.6154 15.6 13.2V12.7692C15.6 12.7692 13.4154 12 14.7385 12H15.2923V11.7231C15.2923 11.7231 13.0462 11.4154 14.9231 11.2923V11.0769C14.9231 11.0769 11.5385 9.50769 14.0615 10.1231V9.81538C14.0615 9.81538 12.8308 9.56923 13.7846 9.44615C13.7846 9.44615 13.2923 8.8 12.4923 8.8C11.6923 8.8 11.8154 8 11.8154 8L10.8 9.07692C10.8 9.07692 11.5077 9.01538 10.3692 9.6C10.3692 9.6 11.3231 9.69231 9.16923 10.9538C9.16923 10.9538 9.96923 10.6462 9.96923 11.1692C9.96923 11.6923 8.55385 12.4 8.55385 12.4L8.67692 12.7385C8.67692 12.7385 9.66154 11.9692 9.6 12.4923C9.53846 13.0154 8 13.8154 8 13.8154L8.15385 14.0615C8.15385 14.0615 9.41538 13.3231 9.44615 13.6308C9.44615 13.6308 9.63077 13.8462 8.4 14.2462L8.55385 14.4923C8.55385 14.4923 10.4308 13.5692 10.9231 14.2462C11.4154 14.9231 9.35385 15.6308 9.35385 15.6308L9.38462 16Z" fill="#27AE60"/>
</g>
<defs>
<clipPath id="clip0_17_75">
<rect width="24" height="32" fill="white"/>
</clipPath>
</defs>
</svg>
