<svg width="48" height="44" viewBox="0 0 48 44" fill="none" xmlns="http://www.w3.org/2000/svg">
<path fill-rule="evenodd" clip-rule="evenodd" d="M1.00523 25.8475C-0.330229 23.5288 -0.33539 20.6533 0.991729 18.3295L9.35529 3.68522C10.6586 1.4031 13.0494 0 15.6345 0H32.0056C34.5427 0 36.8963 1.3518 38.2158 3.56684L46.9392 18.2107C48.3587 20.5935 48.3532 23.5882 46.925 25.9656L38.2195 40.4569C36.8969 42.6584 34.5509 44 32.0235 44H15.6168C13.0412 44 10.6578 42.6071 9.35107 40.3383L1.00523 25.8475ZM24.2849 33.2973C30.469 33.2973 35.4822 28.1728 35.4822 21.8514C35.4822 15.5299 30.469 10.4054 24.2849 10.4054C18.1009 10.4054 13.0877 15.5299 13.0877 21.8514C13.0877 28.1728 18.1009 33.2973 24.2849 33.2973Z" fill="#919191"/>
</svg>
