<svg width="200" height="200" viewBox="0 0 200 200" fill="none" xmlns="http://www.w3.org/2000/svg">
<g clip-path="url(#clip0_181_371)">
<path d="M140.023 101.125L152.455 79.5101H177.32L189.753 101.125L177.32 122.74H152.455L140.023 101.125ZM150.152 75.6289L135.416 101.314L150.152 127H179.592L194.328 101.314L179.592 75.6289H150.152V75.6289Z" fill="#242424"/>
<path d="M183.726 96.8021C183.726 96.8021 183.158 94.8773 182.905 94.2462C179.087 84.338 167.917 79.2892 158.009 83.1074C147.974 86.957 142.925 98.0327 146.807 108.13C148.542 112.643 151.351 115.009 151.351 115.009C151.351 115.009 159.649 111.822 159.586 111.854C161.827 111.002 162.647 111.885 162.647 111.885L159.744 104.344C159.744 104.344 159.208 102.955 157.693 102.987C157.693 102.987 153.591 103.208 153.275 103.208C152.96 103.208 152.329 103.334 152.013 104.186L151.698 105.069L149.11 96.1395C149.11 96.1395 148.511 94.0884 150.404 93.3626L155.737 91.3116L156.999 88.7557C156.999 88.7557 165.235 85.5686 166.055 85.2846C167.002 84.9375 168.579 84.6535 170.094 85.8526L183.726 96.8021Z" fill="#242424"/>
<path d="M184.231 100.462C184.515 103.397 183.063 114.914 171.893 119.206C161.322 123.276 153.433 116.808 153.433 116.808C153.717 116.681 162.174 113.431 163.215 113.053C163.909 112.769 165.077 112.453 166.308 113.337L161.385 100.62C161.385 100.62 161.101 99.4841 159.618 99.4841C159.618 99.4841 158.829 99.5157 155.863 99.6734C155.043 99.705 154.064 99.705 153.717 100.715L153.496 101.346L152.076 96.8335C152.076 96.8335 151.761 95.8238 152.865 95.4135L158.166 93.2363L159.176 90.7434C159.176 90.7434 165.992 88.1244 166.56 87.9035C167.791 87.4302 168.864 88.1875 169.495 88.6608L184.231 100.462Z" fill="#242424"/>
<path d="M186.881 122.771C186.503 122.393 186.029 122.203 185.493 122.203C184.956 122.203 184.483 122.393 184.104 122.803C183.726 123.182 183.536 123.655 183.536 124.191C183.536 124.759 183.726 125.233 184.104 125.611C184.483 126.021 184.925 126.211 185.493 126.179C186.061 126.179 186.503 125.99 186.881 125.611C187.26 125.233 187.449 124.759 187.449 124.191C187.449 123.592 187.26 123.15 186.881 122.771ZM186.692 125.39C186.376 125.737 185.966 125.895 185.493 125.895C185.019 125.895 184.609 125.737 184.294 125.39C183.978 125.043 183.789 124.665 183.789 124.191C183.789 123.718 183.947 123.308 184.294 122.992C184.641 122.645 185.019 122.487 185.493 122.487C185.966 122.487 186.376 122.645 186.692 122.992C187.007 123.308 187.165 123.718 187.165 124.191C187.165 124.633 187.007 125.012 186.692 125.39Z" fill="#242424"/>
<path d="M186.345 125.201C186.345 125.17 186.345 125.138 186.313 125.075C186.313 125.012 186.313 124.949 186.313 124.917V124.759C186.313 124.665 186.282 124.538 186.187 124.412C186.124 124.286 185.998 124.223 185.808 124.191C185.935 124.16 186.061 124.128 186.124 124.097C186.25 124.002 186.345 123.876 186.345 123.655C186.345 123.371 186.219 123.213 185.998 123.119C185.871 123.055 185.682 123.055 185.398 123.055H184.641V125.233H185.02V124.381H185.335C185.524 124.381 185.682 124.412 185.777 124.444C185.903 124.538 185.966 124.696 185.966 124.949V125.106V125.201C185.966 125.201 185.966 125.201 185.966 125.233C185.966 125.233 185.966 125.233 185.966 125.264H186.313L186.345 125.201ZM185.777 124.065C185.682 124.097 185.587 124.128 185.398 124.128H185.051V123.339H185.367C185.587 123.339 185.714 123.371 185.84 123.434C185.935 123.466 185.998 123.592 185.998 123.75C185.998 123.907 185.935 124.002 185.777 124.065Z" fill="#242424"/>
<path d="M49.429 102.229H35.4819C31.9162 102.229 29.6758 104.628 29.6758 108.036V118.007C29.6758 122.046 31.8846 124.097 35.4819 124.065H49.4922C53.0578 124.065 55.2351 121.573 55.2351 118.322V108.036C55.2351 104.281 52.9001 102.229 49.429 102.229ZM49.5237 118.196H35.4819V118.165V108.036V107.878H49.5237V118.196Z" fill="#242424"/>
<path d="M76.9134 102.229H62.9662C59.4005 102.229 57.1602 104.628 57.1602 108.036V118.007C57.1602 122.046 59.369 124.097 62.9662 124.065H77.0081C80.5738 124.065 82.751 121.573 82.751 118.322V108.036C82.7195 104.281 80.3844 102.229 76.9134 102.229ZM76.9134 118.165H76.8503V118.196H62.8085V107.846H76.8503V108.004H76.9134V118.165Z" fill="#242424"/>
<path d="M50.6278 91.8162H45.2951L47.9457 85.7893L50.6278 91.8162ZM61.104 100.588L51.4483 79.573H44.7587L35.4185 100.588H41.3823L43.1494 96.865H52.5527L54.5091 100.588H61.104Z" fill="#242424"/>
<path d="M124.497 79.573H111.087C107.647 79.573 104.713 81.8765 104.713 85.1582V94.7508C104.713 98.632 107.647 100.588 111.118 100.588H124.592C128.032 100.588 130.114 98.1903 130.114 95.0664V85.1582C130.083 81.5609 127.874 79.6046 124.497 79.573ZM124.087 95.7921H111.055V85.1266H124.087V95.7921Z" fill="#242424"/>
<path d="M5 102.229V108.036H14.4664V124.065H20.304V108.036H28.9185V102.229H5Z" fill="#242424"/>
<path d="M84.8962 102.229H90.6708V118.165H104.302V124.065H84.8962V102.229Z" fill="#242424"/>
<path d="M111.308 115.735H123.803V118.165H111.339V116.745H105.565C105.533 116.745 105.565 117.975 105.565 117.975C105.565 122.014 107.773 124.065 111.371 124.034H124.15C127.716 124.034 129.893 121.541 129.893 118.322V114.914C129.893 111.759 127.085 110.024 123.835 110.024H111.371V108.036H123.835V109.203L129.893 109.235V108.036C129.893 104.312 127.558 102.229 124.087 102.229H111.371C107.805 102.229 105.565 104.628 105.565 108.036V110.781C105.565 113.81 108.31 115.735 111.308 115.735Z" fill="#242424"/>
<path d="M5.50464 79.6045V100.588H11.5316V87.8087L17.9372 100.588H22.418L28.792 87.6509V100.588H34.9137V79.6045H25.9837L20.1776 92.0686L14.056 79.6045H5.50464Z" fill="#242424"/>
<path d="M55.6453 79.6045V85.0319H64.5437V100.588H70.3813V85.0319H79.5953V79.6045H55.6453Z" fill="#242424"/>
<path d="M103.356 92.4473V95.0348C103.356 98.1587 101.273 100.557 97.8654 100.557H86.3479C82.9085 100.557 79.9739 98.6321 79.9739 94.7193V85.1582C79.9739 81.8765 82.9085 79.573 86.3479 79.573H97.7708C101.116 79.573 103.356 81.5609 103.356 85.1582C103.356 85.1582 103.356 88.219 103.388 88.1874H97.3921C97.3605 88.1874 97.3605 85.1582 97.3605 85.1582H86.3479V95.7606H97.3605V92.4473H103.356Z" fill="#242424"/>
</g>
<defs>
<clipPath id="clip0_181_371">
<rect width="199.547" height="199.547" fill="white"/>
</clipPath>
</defs>
</svg>
